<svg width="15" height="16" viewBox="0 0 15 16" fill="none" xmlns="http://www.w3.org/2000/svg">
<path d="M9.83665 10C10.2342 10.0002 10.6154 10.1582 10.8964 10.4394C11.1774 10.7205 11.3353 11.1018 11.3353 11.4993V11.8827C11.3353 12.4793 11.122 13.056 10.7353 13.5087C9.68798 14.7307 8.09665 15.3333 5.99998 15.3333C3.90331 15.3333 2.31198 14.73 1.26798 13.5067C0.881717 13.0542 0.66945 12.4789 0.669312 11.884V11.4987C0.669488 11.1011 0.827531 10.7199 1.10869 10.4389C1.38985 10.1579 1.77111 10 2.16864 10H9.83665ZM9.83665 11H2.16798C2.10235 10.9999 2.03735 11.0128 1.97669 11.0378C1.91603 11.0629 1.8609 11.0996 1.81447 11.146C1.76803 11.1924 1.73119 11.2475 1.70605 11.3081C1.68092 11.3687 1.66798 11.4337 1.66798 11.4993V11.8847C1.66798 12.2413 1.79598 12.5867 2.02798 12.858C2.86331 13.8367 4.17464 14.334 5.99931 14.334C7.82531 14.334 9.13665 13.8367 9.97465 12.858C10.2071 12.5862 10.3348 12.2403 10.3346 11.8827V11.4993C10.3346 11.367 10.2821 11.2401 10.1886 11.1465C10.0951 11.0529 9.96829 11.0002 9.83598 11H9.83665ZM12.7033 0.936004C12.8184 0.870268 12.9549 0.852934 13.0828 0.887813C13.2107 0.922692 13.3195 1.00693 13.3853 1.122C14.118 2.40446 14.5023 3.85634 14.5 5.33334C14.5 6.836 14.1093 8.28267 13.378 9.55734C13.3461 9.61567 13.3028 9.66704 13.2508 9.70845C13.1988 9.74986 13.139 9.78048 13.075 9.79852C13.011 9.81656 12.944 9.82164 12.878 9.81349C12.8121 9.80533 12.7484 9.78409 12.6907 9.75101C12.633 9.71794 12.5825 9.67369 12.5421 9.62085C12.5017 9.56802 12.4723 9.50766 12.4555 9.44332C12.4388 9.37897 12.435 9.31193 12.4445 9.24611C12.4539 9.18029 12.4764 9.11702 12.5106 9.06C13.1612 7.92589 13.5023 6.64078 13.5 5.33334C13.5 4.01134 13.158 2.74 12.5166 1.618C12.451 1.50281 12.4337 1.36624 12.4687 1.23835C12.5037 1.11045 12.5881 1.00169 12.7033 0.936004ZM5.99998 2.00267C6.88403 2.00267 7.73188 2.35386 8.357 2.97898C8.98212 3.6041 9.33331 4.45195 9.33331 5.336C9.33331 6.22006 8.98212 7.0679 8.357 7.69303C7.73188 8.31815 6.88403 8.66934 5.99998 8.66934C5.11592 8.66934 4.26808 8.31815 3.64296 7.69303C3.01783 7.0679 2.66664 6.22006 2.66664 5.336C2.66664 4.45195 3.01783 3.6041 3.64296 2.97898C4.26808 2.35386 5.11592 2.00267 5.99998 2.00267ZM10.3926 2.26667C10.5078 2.20099 10.6444 2.18376 10.7723 2.21876C10.9002 2.25377 11.009 2.33815 11.0746 2.45334C11.5735 3.33109 11.835 4.32372 11.8333 5.33334C11.8347 6.34504 11.5721 7.33958 11.0713 8.21867C11.0388 8.27575 10.9953 8.32587 10.9434 8.36616C10.8916 8.40645 10.8322 8.43612 10.7689 8.45349C10.7055 8.47085 10.6394 8.47557 10.5742 8.46736C10.509 8.45916 10.4461 8.43819 10.389 8.40567C10.3319 8.37315 10.2818 8.3297 10.2415 8.2778C10.2012 8.22591 10.1715 8.16659 10.1542 8.10323C10.1368 8.03987 10.1321 7.97371 10.1403 7.90853C10.1485 7.84335 10.1695 7.78042 10.202 7.72334C10.6171 6.9953 10.8347 6.17141 10.8333 5.33334C10.8349 4.49715 10.6185 3.67499 10.2053 2.948C10.1398 2.83287 10.1227 2.69647 10.1577 2.56873C10.1927 2.44099 10.277 2.33236 10.392 2.26667H10.3926ZM5.99998 3.00334C5.69356 3.00334 5.39014 3.06369 5.10705 3.18095C4.82396 3.29821 4.56673 3.47008 4.35006 3.68675C4.13339 3.90342 3.96152 4.16065 3.84426 4.44374C3.727 4.72684 3.66665 5.03025 3.66665 5.33667C3.66665 5.64309 3.727 5.94651 3.84426 6.2296C3.96152 6.51269 4.13339 6.76992 4.35006 6.98659C4.56673 7.20326 4.82396 7.37513 5.10705 7.49239C5.39014 7.60965 5.69356 7.67 5.99998 7.67C6.61882 7.67 7.21231 7.42417 7.64989 6.98659C8.08748 6.549 8.33331 5.95551 8.33331 5.33667C8.33331 4.71783 8.08748 4.12434 7.64989 3.68675C7.21231 3.24917 6.61882 3.00334 5.99998 3.00334Z" fill="#1536E5"/>
</svg>
